<mxfile host="app.diagrams.net" modified="2022-04-18T19:40:03.232Z" agent="5.0 (Windows NT 10.0; Win64; x64) AppleWebKit/537.36 (KHTML, like Gecko) Chrome/100.0.4896.88 Safari/537.36" etag="DAZ86tJV4QFQreOYb4TB" version="17.4.5" type="github">
  <diagram id="V8ppliqPKLSagT5_D5bJ" name="Page-1">
    <mxGraphModel dx="1483" dy="827" grid="1" gridSize="10" guides="1" tooltips="1" connect="1" arrows="1" fold="1" page="1" pageScale="1" pageWidth="827" pageHeight="1169" math="0" shadow="0">
      <root>
        <mxCell id="0" />
        <mxCell id="1" parent="0" />
        <mxCell id="11rglFRCPH7-MpOloY6A-10" style="edgeStyle=orthogonalEdgeStyle;rounded=0;orthogonalLoop=1;jettySize=auto;html=1;exitX=0.5;exitY=1;exitDx=0;exitDy=0;entryX=0.5;entryY=0;entryDx=0;entryDy=0;" edge="1" parent="1" source="11rglFRCPH7-MpOloY6A-3" target="11rglFRCPH7-MpOloY6A-4">
          <mxGeometry relative="1" as="geometry" />
        </mxCell>
        <mxCell id="11rglFRCPH7-MpOloY6A-3" value="&lt;b&gt;START&lt;/b&gt;" style="ellipse;whiteSpace=wrap;html=1;" vertex="1" parent="1">
          <mxGeometry x="530" y="30" width="56" height="40" as="geometry" />
        </mxCell>
        <mxCell id="11rglFRCPH7-MpOloY6A-6" style="edgeStyle=orthogonalEdgeStyle;rounded=0;orthogonalLoop=1;jettySize=auto;html=1;exitX=0;exitY=0.5;exitDx=0;exitDy=0;entryX=0.5;entryY=0;entryDx=0;entryDy=0;" edge="1" parent="1" source="11rglFRCPH7-MpOloY6A-4" target="11rglFRCPH7-MpOloY6A-5">
          <mxGeometry relative="1" as="geometry" />
        </mxCell>
        <mxCell id="11rglFRCPH7-MpOloY6A-15" style="edgeStyle=orthogonalEdgeStyle;rounded=0;orthogonalLoop=1;jettySize=auto;html=1;exitX=1;exitY=0.5;exitDx=0;exitDy=0;entryX=0.5;entryY=0;entryDx=0;entryDy=0;fontSize=9;" edge="1" parent="1" source="11rglFRCPH7-MpOloY6A-4" target="11rglFRCPH7-MpOloY6A-8">
          <mxGeometry relative="1" as="geometry" />
        </mxCell>
        <mxCell id="11rglFRCPH7-MpOloY6A-4" value="&lt;b&gt;Check Lighting Conditions&lt;/b&gt;" style="rhombus;whiteSpace=wrap;html=1;" vertex="1" parent="1">
          <mxGeometry x="503" y="100" width="117" height="100" as="geometry" />
        </mxCell>
        <mxCell id="11rglFRCPH7-MpOloY6A-22" style="edgeStyle=orthogonalEdgeStyle;rounded=0;orthogonalLoop=1;jettySize=auto;html=1;exitX=0;exitY=0.5;exitDx=0;exitDy=0;fontSize=9;" edge="1" parent="1" source="11rglFRCPH7-MpOloY6A-5" target="11rglFRCPH7-MpOloY6A-20">
          <mxGeometry relative="1" as="geometry" />
        </mxCell>
        <mxCell id="11rglFRCPH7-MpOloY6A-23" style="edgeStyle=orthogonalEdgeStyle;rounded=0;orthogonalLoop=1;jettySize=auto;html=1;exitX=1;exitY=0.5;exitDx=0;exitDy=0;fontSize=9;entryX=0.5;entryY=0;entryDx=0;entryDy=0;" edge="1" parent="1" source="11rglFRCPH7-MpOloY6A-5" target="11rglFRCPH7-MpOloY6A-8">
          <mxGeometry relative="1" as="geometry">
            <mxPoint x="470.05882352941194" y="320.05882352941205" as="targetPoint" />
          </mxGeometry>
        </mxCell>
        <mxCell id="11rglFRCPH7-MpOloY6A-5" value="&lt;b&gt;&lt;font style=&quot;font-size: 11px&quot;&gt;Check Speed&lt;br&gt;(Speed Limit&lt;br&gt;&amp;nbsp;= 30)&lt;/font&gt;&lt;br&gt;&lt;/b&gt;" style="rhombus;whiteSpace=wrap;html=1;" vertex="1" parent="1">
          <mxGeometry x="330" y="180" width="110" height="90" as="geometry" />
        </mxCell>
        <mxCell id="11rglFRCPH7-MpOloY6A-46" style="edgeStyle=orthogonalEdgeStyle;rounded=0;orthogonalLoop=1;jettySize=auto;html=1;exitX=0.5;exitY=1;exitDx=0;exitDy=0;fontSize=11;" edge="1" parent="1" source="11rglFRCPH7-MpOloY6A-8" target="11rglFRCPH7-MpOloY6A-45">
          <mxGeometry relative="1" as="geometry" />
        </mxCell>
        <mxCell id="11rglFRCPH7-MpOloY6A-8" value="&lt;b&gt;Add to &lt;br&gt;NotCompletelySafe.csv&lt;/b&gt;" style="rhombus;whiteSpace=wrap;html=1;" vertex="1" parent="1">
          <mxGeometry x="620" y="320" width="190" height="80" as="geometry" />
        </mxCell>
        <mxCell id="11rglFRCPH7-MpOloY6A-11" value="&lt;font style=&quot;font-size: 9px&quot;&gt;Good Conditions&lt;br&gt;Parameter &amp;gt;&amp;nbsp; 3&lt;/font&gt;" style="text;html=1;align=center;verticalAlign=middle;resizable=0;points=[];autosize=1;strokeColor=none;fillColor=none;" vertex="1" parent="1">
          <mxGeometry x="400" y="115" width="80" height="40" as="geometry" />
        </mxCell>
        <mxCell id="11rglFRCPH7-MpOloY6A-12" value="&lt;font style=&quot;font-size: 9px&quot;&gt;Bad Conditions&amp;nbsp;&lt;br&gt;Parameter &amp;lt; 3&lt;/font&gt;" style="text;html=1;align=center;verticalAlign=middle;resizable=0;points=[];autosize=1;strokeColor=none;fillColor=none;" vertex="1" parent="1">
          <mxGeometry x="620" y="115" width="80" height="40" as="geometry" />
        </mxCell>
        <mxCell id="11rglFRCPH7-MpOloY6A-31" style="edgeStyle=orthogonalEdgeStyle;rounded=0;orthogonalLoop=1;jettySize=auto;html=1;exitX=1;exitY=0.5;exitDx=0;exitDy=0;entryX=0.5;entryY=0;entryDx=0;entryDy=0;fontSize=11;" edge="1" parent="1" source="11rglFRCPH7-MpOloY6A-20" target="11rglFRCPH7-MpOloY6A-30">
          <mxGeometry relative="1" as="geometry" />
        </mxCell>
        <mxCell id="11rglFRCPH7-MpOloY6A-34" style="edgeStyle=orthogonalEdgeStyle;rounded=0;orthogonalLoop=1;jettySize=auto;html=1;exitX=0.5;exitY=0;exitDx=0;exitDy=0;entryX=0;entryY=0.5;entryDx=0;entryDy=0;fontSize=11;" edge="1" parent="1" source="11rglFRCPH7-MpOloY6A-20" target="11rglFRCPH7-MpOloY6A-8">
          <mxGeometry relative="1" as="geometry" />
        </mxCell>
        <mxCell id="11rglFRCPH7-MpOloY6A-20" value="&lt;font style=&quot;font-size: 11px&quot;&gt;&lt;b&gt;Check Weather&lt;/b&gt;&lt;/font&gt;" style="rhombus;whiteSpace=wrap;html=1;fontSize=9;direction=south;" vertex="1" parent="1">
          <mxGeometry x="270" y="320" width="80" height="80" as="geometry" />
        </mxCell>
        <mxCell id="11rglFRCPH7-MpOloY6A-24" value="Speed &amp;lt; 30" style="text;html=1;align=center;verticalAlign=middle;resizable=0;points=[];autosize=1;strokeColor=none;fillColor=none;fontSize=9;" vertex="1" parent="1">
          <mxGeometry x="250" y="270" width="60" height="20" as="geometry" />
        </mxCell>
        <mxCell id="11rglFRCPH7-MpOloY6A-26" value="Speed&amp;nbsp; &amp;gt; 30" style="text;html=1;align=center;verticalAlign=middle;resizable=0;points=[];autosize=1;strokeColor=none;fillColor=none;fontSize=9;" vertex="1" parent="1">
          <mxGeometry x="540" y="230" width="60" height="20" as="geometry" />
        </mxCell>
        <mxCell id="11rglFRCPH7-MpOloY6A-48" style="edgeStyle=orthogonalEdgeStyle;rounded=0;orthogonalLoop=1;jettySize=auto;html=1;exitX=0.5;exitY=1;exitDx=0;exitDy=0;entryX=0.5;entryY=1;entryDx=0;entryDy=0;fontSize=11;" edge="1" parent="1" source="11rglFRCPH7-MpOloY6A-29" target="11rglFRCPH7-MpOloY6A-45">
          <mxGeometry relative="1" as="geometry" />
        </mxCell>
        <mxCell id="11rglFRCPH7-MpOloY6A-29" value="&lt;b&gt;Add to Safe.csv&lt;/b&gt;" style="rhombus;whiteSpace=wrap;html=1;fontSize=11;" vertex="1" parent="1">
          <mxGeometry x="80" y="600" width="80" height="80" as="geometry" />
        </mxCell>
        <mxCell id="11rglFRCPH7-MpOloY6A-32" style="edgeStyle=orthogonalEdgeStyle;rounded=0;orthogonalLoop=1;jettySize=auto;html=1;exitX=0;exitY=0.5;exitDx=0;exitDy=0;entryX=0.5;entryY=0;entryDx=0;entryDy=0;fontSize=11;" edge="1" parent="1" source="11rglFRCPH7-MpOloY6A-30" target="11rglFRCPH7-MpOloY6A-29">
          <mxGeometry relative="1" as="geometry" />
        </mxCell>
        <mxCell id="11rglFRCPH7-MpOloY6A-39" style="edgeStyle=orthogonalEdgeStyle;rounded=0;orthogonalLoop=1;jettySize=auto;html=1;exitX=1;exitY=0.5;exitDx=0;exitDy=0;fontSize=9;" edge="1" parent="1" source="11rglFRCPH7-MpOloY6A-30" target="11rglFRCPH7-MpOloY6A-38">
          <mxGeometry relative="1" as="geometry" />
        </mxCell>
        <mxCell id="11rglFRCPH7-MpOloY6A-30" value="&lt;b&gt;Check Skidding/turning&lt;/b&gt;" style="rhombus;whiteSpace=wrap;html=1;fontSize=11;" vertex="1" parent="1">
          <mxGeometry x="160" y="440" width="110" height="100" as="geometry" />
        </mxCell>
        <mxCell id="11rglFRCPH7-MpOloY6A-35" value="&lt;font style=&quot;font-size: 9px&quot;&gt;Weather Parameter &amp;gt; 4&lt;/font&gt;" style="text;html=1;align=center;verticalAlign=middle;resizable=0;points=[];autosize=1;strokeColor=none;fillColor=none;fontSize=11;" vertex="1" parent="1">
          <mxGeometry x="435" y="370" width="110" height="20" as="geometry" />
        </mxCell>
        <mxCell id="11rglFRCPH7-MpOloY6A-36" value="&lt;font style=&quot;font-size: 9px&quot;&gt;Weather Parameter &amp;lt; 4&lt;/font&gt;" style="text;html=1;align=center;verticalAlign=middle;resizable=0;points=[];autosize=1;strokeColor=none;fillColor=none;fontSize=11;" vertex="1" parent="1">
          <mxGeometry x="195" y="400" width="110" height="20" as="geometry" />
        </mxCell>
        <mxCell id="11rglFRCPH7-MpOloY6A-37" value="0 = False i.e. &lt;br&gt;no skidding &amp;amp; turning" style="text;html=1;align=center;verticalAlign=middle;resizable=0;points=[];autosize=1;strokeColor=none;fillColor=none;fontSize=9;" vertex="1" parent="1">
          <mxGeometry x="20" y="555" width="100" height="30" as="geometry" />
        </mxCell>
        <mxCell id="11rglFRCPH7-MpOloY6A-47" style="edgeStyle=orthogonalEdgeStyle;rounded=0;orthogonalLoop=1;jettySize=auto;html=1;exitX=1;exitY=0.5;exitDx=0;exitDy=0;entryX=0;entryY=0.5;entryDx=0;entryDy=0;fontSize=11;" edge="1" parent="1" source="11rglFRCPH7-MpOloY6A-38" target="11rglFRCPH7-MpOloY6A-45">
          <mxGeometry relative="1" as="geometry" />
        </mxCell>
        <mxCell id="11rglFRCPH7-MpOloY6A-38" value="&lt;b&gt;&lt;font style=&quot;font-size: 11px&quot;&gt;Add to Unsafe.csv&lt;/font&gt;&lt;/b&gt;" style="rhombus;whiteSpace=wrap;html=1;fontSize=9;" vertex="1" parent="1">
          <mxGeometry x="280" y="600" width="80" height="80" as="geometry" />
        </mxCell>
        <mxCell id="11rglFRCPH7-MpOloY6A-40" value="&lt;span style=&quot;font-size: 9px&quot;&gt;1 = True i.e.&lt;/span&gt;&lt;br style=&quot;font-size: 9px&quot;&gt;&lt;span style=&quot;font-size: 9px&quot;&gt;both skidding &amp;amp; turning&lt;/span&gt;" style="text;html=1;align=center;verticalAlign=middle;resizable=0;points=[];autosize=1;strokeColor=none;fillColor=none;fontSize=11;" vertex="1" parent="1">
          <mxGeometry x="325" y="555" width="110" height="30" as="geometry" />
        </mxCell>
        <mxCell id="11rglFRCPH7-MpOloY6A-45" value="&lt;b&gt;END&lt;/b&gt;" style="ellipse;whiteSpace=wrap;html=1;fontSize=11;" vertex="1" parent="1">
          <mxGeometry x="680" y="627.5" width="70" height="25" as="geometry" />
        </mxCell>
        <mxCell id="11rglFRCPH7-MpOloY6A-49" value="&lt;b&gt;&lt;i&gt;&lt;font style=&quot;font-size: 14px&quot;&gt;Prediction Algorithm for Accident Dataset&lt;/font&gt;&lt;/i&gt;&lt;/b&gt;" style="text;html=1;align=center;verticalAlign=middle;resizable=0;points=[];autosize=1;strokeColor=none;fillColor=none;fontSize=11;" vertex="1" parent="1">
          <mxGeometry x="269" y="740" width="290" height="20" as="geometry" />
        </mxCell>
      </root>
    </mxGraphModel>
  </diagram>
</mxfile>
